<?xml version="1.0" standalone="no"?>
<!DOCTYPE svg PUBLIC "-//W3C//DTD SVG 20010904//EN"
 "http://www.w3.org/TR/2001/REC-SVG-20010904/DTD/svg10.dtd">
<svg version="1.0" xmlns="http://www.w3.org/2000/svg"
 width="700.000000pt" height="700.000000pt" viewBox="0 0 700.000000 700.000000"
 preserveAspectRatio="xMidYMid meet">
<metadata>
Created by potrace 1.11, written by Peter Selinger 2001-2013
</metadata>
<g transform="translate(0.000000,700.000000) scale(0.100000,-0.100000)"
fill="#000000" stroke="none">
<path d="M251 3500 l0 -990 3249 0 3249 0 0 990 1 990 -3250 0 -3249 0 0 -990z
m764 408 l0 -408 58 0 57 0 0 -408 0 -408 -350 0 c-241 0 -350 3 -351 10 -3
22 -5 1611 -3 1617 2 3 135 5 296 6 l294 0 -1 -409z m902 32 c2 -206 3 -390 3
-407 l0 -33 55 0 55 0 0 -180 c1 -99 1 -236 1 -305 0 -69 0 -171 -1 -228 l0
-104 -337 1 -338 1 0 405 0 405 57 3 57 3 0 382 c0 210 0 394 0 408 l1 26 223
-1 222 -1 2 -375z m1015 361 c2 -9 4 -376 3 -816 l0 -800 -337 -1 c-301 0
-338 1 -339 15 0 23 0 741 0 774 1 26 3 27 56 27 l55 0 0 403 c0 222 2 406 5
408 2 3 128 5 279 5 242 1 275 -1 278 -15z m789 11 c3 -1 5 -184 5 -407 l-1
-405 57 0 57 0 -1 -408 0 -408 -336 0 -337 1 -2 816 -1 816 276 -2 c152 -1
280 -3 283 -3z m907 -404 l2 -408 55 0 c37 0 55 -4 55 -12 1 -21 1 -656 0
-734 l0 -71 -337 1 -338 0 0 406 0 405 56 3 57 3 0 387 c0 213 1 397 1 408 1
21 3 21 224 20 l222 -1 3 -407z m902 338 c1 -39 1 -223 1 -408 l1 -338 56 0
57 0 0 -407 0 -408 -337 -1 c-186 0 -338 3 -339 8 0 4 0 168 0 363 0 195 0
375 0 400 l1 45 55 0 55 0 0 408 0 408 225 1 225 0 0 -71z m1045 -745 l0 -816
-350 0 -350 0 -3 408 -2 407 57 0 58 0 -1 402 c0 222 1 406 2 409 2 3 135 6
296 5 l293 0 0 -815z"/>
</g>
</svg>
