<?xml version="1.0" standalone="no"?>
<!DOCTYPE svg PUBLIC "-//W3C//DTD SVG 20010904//EN"
 "http://www.w3.org/TR/2001/REC-SVG-20010904/DTD/svg10.dtd">
<svg version="1.0" xmlns="http://www.w3.org/2000/svg"
 width="1024.000000pt" height="1024.000000pt" viewBox="0 0 1024.000000 1024.000000"
 preserveAspectRatio="xMidYMid meet">
<metadata>
Created by potrace 1.11, written by Peter Selinger 2001-2013
</metadata>
<g transform="translate(0.000000,1024.000000) scale(0.100000,-0.100000)"
fill="#000000" stroke="none">
<path d="M5459 9076 c-2 -2 -47 -6 -100 -10 -53 -4 -107 -8 -120 -10 -13 -2
-46 -7 -74 -10 -123 -16 -314 -51 -420 -78 -44 -11 -87 -21 -95 -23 -38 -8
-352 -110 -385 -125 -11 -5 -60 -26 -110 -46 -111 -45 -346 -160 -440 -215
-38 -23 -79 -47 -90 -53 -132 -72 -447 -309 -609 -459 -284 -261 -548 -583
-721 -878 -69 -119 -225 -418 -225 -433 0 -3 -11 -29 -24 -58 -79 -170 -204
-568 -232 -738 -2 -14 -9 -45 -14 -70 -14 -68 -30 -161 -35 -214 -3 -25 -7
-59 -9 -74 -7 -45 -18 -163 -22 -237 -4 -82 -4 -427 0 -470 2 -16 6 -74 10
-129 4 -54 9 -106 11 -116 2 -9 6 -41 10 -71 3 -30 8 -61 10 -69 2 -8 7 -35
10 -60 30 -214 132 -577 230 -815 47 -116 158 -349 168 -353 4 -2 7 -8 7 -14
0 -6 28 -59 61 -117 285 -490 670 -915 1118 -1233 36 -26 71 -52 78 -58 7 -5
15 -10 18 -10 4 0 21 -11 38 -24 123 -92 415 -244 692 -361 171 -73 491 -167
710 -209 151 -29 136 -27 255 -41 36 -4 68 -9 71 -11 31 -17 633 -26 829 -11
202 15 347 32 500 57 30 5 71 12 90 15 19 3 42 8 50 10 8 2 32 6 54 10 21 3
41 7 45 9 3 2 24 7 46 10 63 10 350 82 460 116 163 50 410 139 565 203 151 63
503 235 508 249 2 4 9 8 16 8 21 0 82 73 101 120 16 41 17 89 15 525 0 264 -3
946 -5 1515 -3 914 -5 1040 -19 1074 -25 61 -53 93 -102 116 l-45 22 -692 0
c-381 -1 -701 -3 -712 -6 -64 -15 -115 -59 -141 -121 -15 -37 -17 -125 -17
-1027 l0 -986 -51 -20 c-108 -41 -305 -95 -396 -108 -19 -3 -41 -7 -48 -10 -8
-2 -37 -7 -65 -10 -29 -2 -61 -7 -72 -9 -37 -8 -237 -18 -340 -19 -182 0 -263
10 -515 60 -55 11 -200 59 -300 99 -349 140 -673 385 -906 685 -302 388 -467
862 -467 1345 0 227 31 435 103 680 30 106 115 299 182 420 191 340 461 621
785 819 182 110 434 216 598 251 11 2 52 11 90 19 39 8 95 17 125 21 30 3 69
9 85 12 41 7 377 6 445 -1 252 -27 430 -70 630 -153 132 -54 314 -157 405
-229 17 -14 35 -28 40 -32 6 -4 37 -30 70 -58 83 -70 105 -83 156 -91 60 -8
60 -8 115 7 58 17 52 11 459 445 159 170 151 161 300 319 255 269 255 270 255
348 -1 70 -30 119 -116 192 -366 313 -818 574 -1304 753 -124 46 -316 108
-365 117 -11 2 -45 11 -75 20 -54 15 -267 59 -345 71 -36 5 -75 11 -225 30
-50 7 -565 17 -571 11z"/>
</g>
</svg>
