<svg xmlns="http://www.w3.org/2000/svg" viewBox="0 0 286.19 146.32">
  <title>logo</title>
    <path d="M44.46,66.38c-1.67-6.64-3.45-13.66-5.31-21-2.19-8.61-4.42-17.38-6-24a11,11,0,0,0,3,0A10.78,10.78,0,1,0,30.79.66a10.62,10.62,0,0,0-6.95,10.1h0a10.91,10.91,0,0,0,.59,3.54c.83,3.77,2.61,11,6.05,24.52A34.59,34.59,0,1,0,47,105.45c2.1,9.18,3.49,16,3.49,18.2a16.11,16.11,0,0,1-15.9,15.89,15.91,15.91,0,0,1-15.86-15,1,1,0,0,0-1-.93H12.91a1,1,0,0,0-1,1,22.68,22.68,0,0,0,45.33-1c0-2.8-1.5-10.36-4-21.37a34.57,34.57,0,0,0,16-29.12V66.38ZM34.59,101A28.18,28.18,0,0,1,6.78,73.16a27.85,27.85,0,0,1,25.38-27.7c.14.53.27,1.07.41,1.61,1.51,6,3.19,12.55,4.89,19.31H36.05a10.76,10.76,0,1,0,0,21.52,10.66,10.66,0,0,0,6.27-2c1.1,4.49,2.15,8.85,3.12,12.91A27.64,27.64,0,0,1,34.59,101Zm17-5.79c-1.56-6.52-3.38-13.92-5.4-22H62.4A27.78,27.78,0,0,1,51.56,95.18Z"/>
      <path d="M113.25,30.34a16.07,16.07,0,0,1,10.13,3.9.73.73,0,0,1,.08,1.13l-3.28,3.48a.88.88,0,0,1-1.12,0,7.63,7.63,0,0,0-5.44-2,8.33,8.33,0,0,0,0,16.65,9.94,9.94,0,0,0,3.69-.66V45.62a.77.77,0,0,1,.79-.79h5a.78.78,0,0,1,.75.79l0,11.17a1,1,0,0,1-.33.66,21,21,0,0,1-10.3,2.7,14.91,14.91,0,0,1,0-29.81Z"/>
      <path d="M129.32,31.5a.81.81,0,0,1,.79-.78h5a.82.82,0,0,1,.79.78V59a.83.83,0,0,1-.79.79h-5a.82.82,0,0,1-.79-.79Z"/>
      <path d="M141.6,31.5a.79.79,0,0,1,.79-.78h4.94a.81.81,0,0,1,.79.78V53.67H158a.79.79,0,0,1,.79.79V59a.79.79,0,0,1-.79.79H142.39a.8.8,0,0,1-.79-.79Z"/>
      <path d="M161.91,31.5a.78.78,0,0,1,.79-.78h9.67c4.9,0,8.66,3.36,8.66,7.72,0,3.19-1.22,5.52-3.17,6.56,2.2.91,3.92,2.94,3.92,6.76,0,4.65-3.85,8-8.79,8H162.7a.79.79,0,0,1-.79-.79Zm10.25,22.34a3,3,0,0,0,3-3c0-1.66-1.78-2.91-3.4-2.91h-3.37v5.94Zm0-11.25a3,3,0,0,0,3-3c0-1.66-1.78-2.9-3.4-2.9h-3.37v5.93Z"/>
      <path d="M186.89,31.5a.79.79,0,0,1,.79-.78h17.19a.78.78,0,0,1,.79.78V36a.79.79,0,0,1-.79.79h-11.5V42h9.47a.81.81,0,0,1,.78.79v4.52a.78.78,0,0,1-.78.79h-9.47v5.6h11.5a.79.79,0,0,1,.79.79V59a.79.79,0,0,1-.79.79H187.68a.8.8,0,0,1-.79-.79Z"/>
      <path d="M211,31.5a.79.79,0,0,1,.79-.78h12.42a9,9,0,0,1,9.05,9c0,3.82-2.54,6.89-6.15,8.35l5.69,10.54a.79.79,0,0,1-.71,1.21h-5.52a.75.75,0,0,1-.66-.38l-5.52-11h-2.87V59a.82.82,0,0,1-.79.79h-4.94A.8.8,0,0,1,211,59Zm12.67,11.63a3.33,3.33,0,0,0,3.15-3.32,3.18,3.18,0,0,0-3.15-3.16h-6.15v6.48Z"/>
      <path d="M242.17,36.82h-5.94a.79.79,0,0,1-.79-.79V31.5a.78.78,0,0,1,.79-.78h18.43a.78.78,0,0,1,.79.78V36a.79.79,0,0,1-.79.79h-5.93V59a.83.83,0,0,1-.79.79h-5a.82.82,0,0,1-.78-.79Z"/>
      <path d="M271.24,30.3a14.95,14.95,0,1,1-14.9,15A14.92,14.92,0,0,1,271.24,30.3Zm0,23.25A8.31,8.31,0,1,0,263,45.29,8.32,8.32,0,0,0,271.24,53.55Z"/>
      <path d="M120.29,96.93c1.17,0,2.45-1.08,2.45-3.15V74.22a.79.79,0,0,1,.79-.78h5.07a.79.79,0,0,1,.79.78v19.6c0,5.77-4.07,9.09-8.93,9.09h-2.54a.83.83,0,0,1-.83-.83V97.76a.83.83,0,0,1,.83-.83Z"/>
      <path d="M135.12,74.22a.81.81,0,0,1,.79-.78H141a.78.78,0,0,1,.79.78V91a5.15,5.15,0,1,0,10.3,0V74.22a.78.78,0,0,1,.79-.78H158a.81.81,0,0,1,.79.78V91.37a11.83,11.83,0,0,1-23.66,0Z"/>
      <path d="M164.2,74.18a.78.78,0,0,1,.79-.74h1L182.59,89h0V74.22a.79.79,0,0,1,.79-.78h5a.81.81,0,0,1,.79.78v27.53a.78.78,0,0,1-.79.75h-.66a1.22,1.22,0,0,1-.54-.21L170.8,86.22h0v15.49a.79.79,0,0,1-.79.79H165a.83.83,0,0,1-.79-.79Z"/>
      <path d="M195,74.22a.81.81,0,0,1,.78-.78h5a.81.81,0,0,1,.78.78v27.49a.82.82,0,0,1-.78.79h-5a.82.82,0,0,1-.78-.79Z"/>
      <path d="M220.86,73A14.95,14.95,0,1,1,206,88,14.92,14.92,0,0,1,220.86,73Zm0,23.25A8.31,8.31,0,1,0,212.6,88,8.32,8.32,0,0,0,220.86,96.27Z"/>
      <path d="M240.31,74.22a.78.78,0,0,1,.79-.78h12.41a9,9,0,0,1,9.06,9c0,3.82-2.54,6.89-6.15,8.35l5.69,10.54a.79.79,0,0,1-.71,1.21h-5.52a.75.75,0,0,1-.66-.38l-5.53-11h-2.86v10.59a.82.82,0,0,1-.79.79H241.1a.79.79,0,0,1-.79-.79ZM253,85.85a3.33,3.33,0,0,0,3.16-3.32A3.18,3.18,0,0,0,253,79.37h-6.14v6.48Z"/>

</svg>
